# AST/ASF file generated using VICON BodyLanguage
# -----------------------------------------------
:version 1.10
:name VICON
:units
  mass 1.0
  length 0.45
  angle deg
:documentation
   .ast/.asf automatically generated from VICON data using
   VICON BodyBuilder and BodyLanguage model FoxedUp or BRILLIANT.MOD
:root
   order TX TY TZ RX RY RZ
   axis XYZ
   position 0 0 0  
   orientation 0 0 0 
:bonedata
  begin
     id 1 
     name lhipjoint
     direction 0.700308 -0.549349 0.455834 
     length 2.59063 
     axis 0 0 0  XYZ
  end
  begin
     id 2 
     name lfemur
     direction 0.34202 -0.939693 0  
     length 6.31066  
     axis 0 0 20  XYZ
    dof rx ry rz
    limits (-160.0 20.0)
           (-70.0 70.0)
           (-60.0 70.0)
  end
  begin
     id 3 
     name ltibia
     direction 0.34202 -0.939693 0   
     length 7.36093   
     axis 0 0 20   XYZ
    dof rx
    limits (-10.0 170.0)
  end
  begin
     id 4 
     name lfoot
     direction 0.0905332 -0.248738 0.96433   
     length 2.0233   
     axis -90 7.62852e-016 20   XYZ
    dof rx rz
    limits (-45.0 90.0)
           (-70.0 20.0)
  end
  begin
     id 5 
     name ltoes
     direction 1.53573e-011 -4.21855e-011 1   
     length 1.01524   
     axis -90 7.62852e-016 20   XYZ
    dof rx
    limits (-90.0 20.0)
  end
  begin
     id 6 
     name rhipjoint
     direction -0.61416 -0.607328 0.503944   
     length 2.34332  
     axis 0 0 0  XYZ 
  end
  begin
     id 7 
     name rfemur
     direction -0.34202 -0.939693 0   
     length 6.58548   
     axis 0 0 -20   XYZ
    dof rx ry rz
    limits (-160.0 20.0)
           (-70.0 70.0)
           (-70.0 60.0)
  end
  begin
     id 8 
     name rtibia
     direction -0.34202 -0.939693 0   
     length 7.20707   
     axis 0 0 -20   XYZ
    dof rx
    limits (-10.0 170.0)
 end
 begin
     id 9 
     name rfoot
     direction -0.136772 -0.375778 0.916561   
     length 1.92184  
     axis -90 -7.62852e-016 -20   XYZ
    dof rx rz
    limits (-45.0 90.0)
           (-20.0 70.0)
  end
  begin
     id 10 
     name rtoes
     direction -1.53535e-011 -4.21828e-011 1   
     length 0.951089   
     axis -90 -7.62852e-016 -20   XYZ
    dof rx
    limits (-90.0 20.0)
  end
  begin
     id 11 
     name lowerback
     direction -0.0444974 0.988086 -0.147332   
     length 1.9609   
     axis 0 0 0   XYZ
    dof rx ry rz
    limits (-20.0 45.0)
           (-30.0 30.0)
           (-30.0 30.0)
  end
  begin
     id 12 
     name upperback
     direction 0.00613146 0.999513 0.0306081   
     length 1.94944   
     axis 0 0 0   XYZ
    dof rx ry rz
    limits (-20.0 45.0)
           (-30.0 30.0)
           (-30.0 30.0)
  end
  begin
     id 13 
     name thorax
     direction 0.0254621 0.994518 0.101418   
     length 2.0119   
     axis 0 0 0   XYZ
    dof rx ry rz
    limits (-20.0 45.0)
           (-30.0 30.0)
           (-30.0 30.0)
  end
  begin
     id 14 
     name lowerneck
     direction 0.0168698 0.977854 0.208608   
     length 1.6375   
     axis 0 0 0   XYZ
    dof rx ry rz
    limits (-20.0 45.0)
           (-30.0 30.0)
           (-30.0 30.0)
  end
  begin
     id 15 
     name upperneck
     direction -0.0283988 0.989338 -0.142843   
     length 1.6851   
     axis 0 0 0   XYZ
    dof rx ry rz
    limits (-20.0 45.0)
           (-30.0 30.0)
           (-30.0 30.0)
  end
  begin
     id 16
     name head
     direction -0.0129422 0.99741 -0.0707489  
     length 1.69029  
     axis 0 0 0   XYZ
    dof rx ry rz
    limits (-20.0 45.0)
           (-30.0 30.0)
           (-30.0 30.0)
  end
  begin
     id 17 
     name lclavicle
     direction 0.820295 0.564628 -0.0911715  
     length 3.16484  
     axis 0 0 0   XYZ
    dof ry rz
    limits (-20.0 10.0)
           (0.0 20.0)
  end
  begin
     id 18 
     name lhumerus
     direction 1 -4.48969e-011 1.00186e-027   
     length 5.17853   
     axis 180 -30 -90   XYZ
    dof rx ry rz
    limits (-60.0 90.0)
           (-90.0 90.0)
           (-90.0 90.0)
  end
  begin
     id 19
     name lradius
     direction 1 -4.48966e-011 -1.52922e-027   
     length 3.40399   
     axis 180 -30 -90   XYZ
    dof rx
    limits (-10.0 170.0)
  end
  begin
     id 20
     name lwrist
     direction 1 -4.48981e-011 -3.80893e-027   
     length 1.70199   
     axis 1.1049e-015 90 90   XYZ
    dof ry
    limits (-180.0 0.0)
 end
  begin
     id 21 
     name lhand
     direction 1 -4.48957e-011 -7.61786e-027   
     length 0.708964   
     axis 4.86085e-015 90 90   XYZ
    dof rx rz
    limits (-90.0 90.0)
           (-45.0 45.0)
  end
  begin
     id 22 
     name lfingers
     direction 1 -4.48929e-011 -1.52357e-026   
     length 0.571585   
     axis 9.7217e-015 90 90   XYZ
    dof rx
    limits (0.0 90.0)
  end
  begin
     id 23
     name lthumb
     direction 0.707107 -6.34905e-011 0.707107   
     length 0.820685   
     axis -90 45 2.85299e-015   XYZ
    dof rx rz
    limits (-45.0 45.0)
           (-45.0 45.0)
  end
  begin
     id 24 
     name rclavicle
     direction -0.858602 0.463947 -0.218075   
     length 3.35137  
     axis 0 0 0   XYZ 
    dof ry rz
    limits (-10.0 20.0)
           (-20.0 0.0)
  end
  begin
     id 25 
     name rhumerus
     direction -1 -4.48969e-011 -1.98511e-027  
     length 5.42351   
     axis 180 30 90   XYZ
    dof rx ry rz
    limits (-90.0 60.0)
           (-90.0 90.0)
           (-90.0 90.0)
  end
  begin
     id 26 
     name rradius
     direction -1 -4.48961e-011 -2.82624e-027   
     length 3.42066   
     axis 180 30 90   XYZ
    dof rx
    limits (-10.0 170.0)
  end
  begin
     id 27 
     name rwrist
     direction -1 -4.48966e-011 -3.80893e-027   
     length 1.71033   
     axis 1.1049e-015 -90 -90   XYZ
    dof ry
    limits (-180.0 0.0)
  end
  begin
     id 28
     name rhand
     direction -1 -4.48964e-011 -7.61786e-027   
     length 0.743608   
     axis 4.86085e-015 -90 -90   XYZ
    dof rx rz
    limits (-90.0 90.0)
           (-45.0 45.0)
  end
  begin
     id 29
     name rfingers
     direction -1 -4.48961e-011 -1.52357e-026   
     length 0.599516   
     axis 9.7217e-015 -90 -90   XYZ
    dof rx
    limits (0.0 90.0)
  end
  begin
     id 30
     name rthumb
     direction -0.707107 -6.34913e-011 0.707107   
     length 0.860789   
     axis -90 -45 -2.85299e-015   XYZ
    dof rx rz
    limits (-45.0 45.0)
           (-45.0 45.0)
  end
:hierarchy
  begin
    root lhipjoint rhipjoint lowerback
    lhipjoint lfemur
    lfemur ltibia
    ltibia lfoot
    lfoot ltoes
    rhipjoint rfemur
    rfemur rtibia
    rtibia rfoot
    rfoot rtoes
    lowerback upperback
    upperback thorax
    thorax lowerneck lclavicle rclavicle
    lowerneck upperneck
    upperneck head
    lclavicle lhumerus
    lhumerus lradius
    lradius lwrist
    lwrist lhand lthumb
    lhand lfingers
    rclavicle rhumerus
    rhumerus rradius
    rradius rwrist
    rwrist rhand rthumb
    rhand rfingers
  end

#!OML:ASF E:\mmandel\Project 1\Capture day 1\Session 2\Subject.ASF
:FULLY-SPECIFIED
:DEGREES
179
root -3.83554 1.86406 -0.881476 150.039 80.4681 -122.457
lowerback 24.8788 -1.06344 -0.515446
upperback 18.7905 0.69239 1.07717
thorax 7.28667 1.35451 1.49621
lowerneck -6.12753 0.929858 6.40431
upperneck 43.6291 1.43267 4.88842
head 17.0048 3.65229 1.70123
rclavicle -3.97569e-015 -1.11319e-013
rhumerus 7.30387 18.6979 -70.5288
rradius 22.2701
rwrist 16.3115
rhand 8.2043 32.966
rfingers 7.12502
rthumb 33.4213 6.05565
lclavicle -3.97569e-015 -1.11319e-013
lhumerus 42.8592 -33.8835 33.9348
lradius 29.5225
lwrist 8.23343
lhand -6.15576 -24.1399
lfingers 7.12502
lthumb 19.6826 4.88368
rfemur -30.8314 5.47295 17.1152
rtibia 57.3252
rfoot 9.71098 -7.69626
rtoes -9.40702
lfemur -29.9358 29.0741 -1.47688
ltibia 56.4461
lfoot 12.7732 -2.89098
ltoes 11.8339
180
root -3.81505 1.85898 -0.876403 154.804 80.5749 -117.267
lowerback 25.9625 -1.31709 0.271668
upperback 18.9719 0.600706 1.34033
thorax 7.00009 1.42194 1.35613
lowerneck -6.25988 0.876517 6.15536
upperneck 43.6405 1.26955 5.18067
head 17.0382 3.57865 1.85764
rclavicle -3.18055e-015 5.48646e-014
rhumerus 7.56863 18.8419 -70.1173
rradius 22.4102
rwrist 15.9795
rhand 7.99495 32.9918
rfingers 7.12502
rthumb 33.2222 6.03875
lclavicle -3.18055e-015 5.48646e-014
lhumerus 43.2968 -34.1732 33.6145
lradius 29.8783
lwrist 8.43234
lhand -6.04631 -24.1722
lfingers 7.12502
lthumb 19.7878 4.84053
rfemur -30.2035 5.16309 18.1478
rtibia 57.1191
rfoot 9.67408 -7.92248
rtoes -8.63249
lfemur -30.1511 28.9354 -0.461603
ltibia 57.1133
lfoot 12.7791 -3.662
ltoes 12.4558
181
root -3.79561 1.85873 -0.870434 158.671 80.7031 -113.109
lowerback 26.7423 -1.5005 0.740757
upperback 19.2209 0.54446 1.59822
thorax 6.94789 1.47038 1.39244
lowerneck -6.45044 0.893319 5.9612
upperneck 43.5769 1.25078 5.2936
head 17.0435 3.53828 1.93773
rclavicle -9.54166e-015 -1.10524e-013
rhumerus 8.0509 18.7468 -69.7583
rradius 22.54
rwrist 15.9497
rhand 8.00181 32.9149
rfingers 7.12502
rthumb 33.2288 5.96325
lclavicle -9.54166e-015 -1.10524e-013
lhumerus 43.464 -34.1599 33.6615
lradius 30.208
lwrist 8.33679
lhand -5.91477 -24.2147
lfingers 7.12502
lthumb 19.9143 4.78499
rfemur -29.7284 4.91728 19.0712
rtibia 56.9973
rfoot 9.74164 -7.88364
rtoes -8.24862
lfemur -30.3737 28.4429 0.421563
ltibia 57.8012
lfoot 12.777 -3.77308
ltoes 13.8666
182
root -3.71639 1.87295 -0.852062 177.364 81.5231 -92.6689
lowerback 28.5321 -1.92473 3.12809
upperback 19.7713 0.737731 2.40145
thorax 6.83598 1.88629 0.915978
lowerneck -6.81058 0.845893 5.74523
upperneck 43.8782 1.12364 5.48853
head 17.3086 3.48835 2.08085
rclavicle 3.18055e-015 -3.97569e-015
rhumerus 8.43927 18.868 -69.4688
rradius 22.6458
rwrist 15.6885
rhand 7.86485 32.8245
rfingers 7.12502
rthumb 33.0985 5.84517
lclavicle 3.18055e-015 -3.97569e-015
lhumerus 43.7957 -34.4228 33.176
lradius 30.6798
lwrist 8.71181
lhand -6.03816 -24.4387
lfingers 7.12502
lthumb 19.7957 4.57324
rfemur -27.9063 5.59967 23.2264
rtibia 56.8788
rfoot 9.28308 -8.72607
rtoes -8.67696
lfemur -29.2447 28.3536 5.29966
ltibia 58.7318
lfoot 13.3524 -4.29241
ltoes 15.7877
183
root -3.70088 1.88517 -0.854524 181.956 81.5854 -88.443
lowerback 28.4653 -2.07156 3.83144
upperback 19.8343 0.709568 2.48971
thorax 6.95599 1.9512 0.63263
lowerneck -7.11403 0.772346 5.51346
upperneck 44.262 0.965415 5.73175
head 17.6146 3.43977 2.25399
rclavicle -3.77691e-014 2.3059e-014
rhumerus 8.68147 19.1765 -69.1481
rradius 22.7187
rwrist 15.2732
rhand 7.79448 32.907
rfingers 7.12502
rthumb 33.0316 5.91341
lclavicle -3.77691e-014 2.3059e-014
lhumerus 44.1317 -34.7876 32.5745
lradius 31.2164
lwrist 9.17214
lhand -5.89566 -24.6188
lfingers 7.12502
lthumb 19.9327 4.37897
rfemur -28.3022 5.44856 23.999
rtibia 56.9404
rfoot 9.51848 -7.93447
rtoes -13.0957
lfemur -29.9731 28.246 5.77854
ltibia 59.5218
lfoot 13.4657 -3.7923
ltoes 18.299
184
root -3.6971 1.87915 -0.853896 179.856 81.3498 -90.9276
lowerback 28.9588 -2.10401 3.29876
upperback 19.7487 0.587338 2.6123
thorax 6.61899 1.81706 1.0805
lowerneck -7.08767 0.744069 5.37831
upperneck 44.3267 1.04801 5.51576
head 17.6394 3.42102 2.19281
rclavicle -1.82882e-014 1.7175e-013
rhumerus 8.92483 19.5142 -68.6652
rradius 22.8406
rwrist 15.2155
rhand 7.80996 33.1229
rfingers 7.12502
rthumb 33.0463 6.13247
lclavicle -1.82882e-014 1.7175e-013
lhumerus 43.8839 -34.9302 32.8261
lradius 31.6742
lwrist 9.40229
lhand -5.61372 -24.3757
lfingers 7.12502
lthumb 20.2036 4.59367
rfemur -28.6209 4.89241 23.5837
rtibia 57.116
rfoot 9.08445 -8.33706
rtoes -11.3791
lfemur -30.6817 27.5441 4.98842
ltibia 60.0983
lfoot 12.0673 -6.1852
ltoes 7.35635
185
root -3.63801 1.91583 -0.852628 200.518 81.6248 -70.2227
lowerback 28.8381 -2.10568 5.44671
upperback 20.1024 1.07628 3.43385
thorax 6.72567 2.28303 0.671435
lowerneck -6.93294 0.630384 5.43687
upperneck 44.2765 0.966787 5.29059
head 17.5692 3.36477 2.055
rclavicle -1.78906e-014 -5.56597e-014
rhumerus 8.82152 19.5221 -68.2294
rradius 23.1453
rwrist 15.2695
rhand 7.70221 33.3678
rfingers 7.12502
rthumb 32.9438 6.35575
lclavicle -1.78906e-014 -5.56597e-014
lhumerus 44.0779 -35.5714 32.4733
lradius 32.3002
lwrist 10.0009
lhand -5.82886 -24.1215
lfingers 7.12502
lthumb 19.9969 4.86954
rfemur -28.7038 5.87421 27.1184
rtibia 57.1552
rfoot 9.06993 -9.2608
rtoes -11.186
lfemur -30.9169 28.5687 8.83076
ltibia 61.0637
lfoot 13.4494 -4.79127
ltoes 17.1449
186
root -3.65971 1.91589 -0.849361 195.9 81.5923 -76.0064
lowerback 28.1082 -1.98723 4.79039
upperback 19.8173 0.98626 3.38596
thorax 7.11153 2.12557 1.04387
lowerneck -6.83978 0.585909 5.46657
upperneck 44.1708 0.93224 5.19501
head 17.4813 3.33297 1.98679
rclavicle -7.15625e-015 -3.89618e-014
rhumerus 8.92017 20.2226 -67.5029
rradius 23.6426
rwrist 14.4317
rhand 7.33969 33.3239
rfingers 7.12502
rthumb 32.599 6.2399
lclavicle -7.15625e-015 -3.89618e-014
lhumerus 44.3558 -35.9572 31.9817
lradius 32.9185
lwrist 10.3079
lhand -6.24074 -24.3036
lfingers 7.12502
lthumb 19.6009 4.72828
rfemur -29.8985 5.05506 26.274
rtibia 57.3429
rfoot 9.56849 -8.68349
rtoes -13.2978
lfemur -32.3275 28.2819 7.14932
ltibia 61.4881
lfoot 12.3431 -7.65725
ltoes 2.79466
187
root -3.59804 1.9201 -0.845628 208.636 81.0103 -61.5912
lowerback 30.5896 -2.36429 6.26687
upperback 20.3134 1.22996 3.94128
thorax 6.29222 2.48919 0.741409
lowerneck -6.87551 0.57726 5.49054
upperneck 44.1147 0.96464 5.02073
head 17.4557 3.31494 1.9
rclavicle -6.75868e-015 5.56597e-015
rhumerus 9.12411 20.7444 -66.9608
rradius 24.0566
rwrist 13.746
rhand 7.08792 33.068
rfingers 7.12502
rthumb 32.3594 5.93475
lclavicle -6.75868e-015 5.56597e-015
lhumerus 44.3714 -36.1076 31.8003
lradius 33.4874
lwrist 10.418
lhand -6.35918 -24.5939
lfingers 7.12502
lthumb 19.487 4.44958
rfemur -28.0815 5.21059 29.0421
rtibia 57.341
rfoot 9.51884 -9.05296
rtoes -13.0529
lfemur -31.0193 28.1205 10.7404
ltibia 62.2288
lfoot 12.9081 -7.95601
ltoes 6.80983
